# xmcd
#
# Track frame offsets:
#	225
#	15558
#	35397
#	58012
#	81810
#	101620
#	118082
#	132249
#	154043
#	175191
#	193795
#	225550
#
# Disc length: 3175 seconds
#
# Revision: 1
# Processed by: cddbd v1.5.1PL0 Copyright (c) Steve Scherf et al.
# Submitted via: audiograbber 1.81.03
#
DISCID=950c640c
DTITLE=Dan Brittan - Riding The Red, White And Black Horses
DYEAR=1900
DGENRE=Blues
TTITLE0=Easier To See
TTITLE1=Really Loved Me
TTITLE2=Lonely Eyes
TTITLE3=Save It For The Judge
TTITLE4=Magical Time
TTITLE5=Bite Back
TTITLE6=Haunted
TTITLE7=Fear Of The Horse
TTITLE8=Big World
TTITLE9=Thought You Were Gone
TTITLE10=Easy
TTITLE11=The Last Time I Saw You
EXTD=
EXTT0=
EXTT1=
EXTT2=
EXTT3=
EXTT4=
EXTT5=
EXTT6=
EXTT7=
EXTT8=
EXTT9=
EXTT10=
EXTT11=
PLAYORDER=
